<svg xmlns="http://www.w3.org/2000/svg" width="30" height="30" viewBox="0 0 30 30">
  <path id="language" d="M15,0A15,15,0,1,0,30,15,15,15,0,0,0,15,0ZM27.973,20.255l-4.266.736a22.385,22.385,0,0,0,.785-5.491h4.5a13.907,13.907,0,0,1-1.015,4.755ZM1.012,15.5h4.5a22.385,22.385,0,0,0,.785,5.491l-4.266-.736A13.907,13.907,0,0,1,1.012,15.5ZM2.027,9.745l4.266-.736A22.385,22.385,0,0,0,5.508,14.5h-4.5A13.907,13.907,0,0,1,2.027,9.745ZM15.5,8.028a34.4,34.4,0,0,1,5.36.49l1.765.3a21.462,21.462,0,0,1,.867,5.678H15.5Zm5.531-.5a35.442,35.442,0,0,0-5.531-.5v-6c2.866.275,5.357,2.9,6.768,6.72Zm-6.531-.5a35.436,35.436,0,0,0-5.53.5l-1.238.214c1.411-3.821,3.9-6.446,6.768-6.72ZM9.14,8.518a34.388,34.388,0,0,1,5.36-.49V14.5H6.508a21.463,21.463,0,0,1,.867-5.678ZM6.508,15.5H14.5v6.472a34.4,34.4,0,0,1-5.36-.49l-1.765-.3A21.462,21.462,0,0,1,6.508,15.5ZM8.97,22.468a35.561,35.561,0,0,0,5.531.507v6c-2.866-.276-5.357-2.9-6.768-6.72Zm6.531.507a35.558,35.558,0,0,0,5.53-.507l1.238-.214c-1.411,3.821-3.9,6.446-6.768,6.72Zm5.36-1.492a34.388,34.388,0,0,1-5.36.49V15.5h7.993a21.463,21.463,0,0,1-.867,5.678ZM24.492,14.5a22.385,22.385,0,0,0-.785-5.491l4.266.736A13.907,13.907,0,0,1,28.988,14.5Zm2.975-5.857-4.089-.706A13.788,13.788,0,0,0,19.4,1.712a14.066,14.066,0,0,1,8.067,6.931ZM10.6,1.712A13.788,13.788,0,0,0,6.622,7.938l-4.089.706A14.067,14.067,0,0,1,10.6,1.712ZM2.533,21.357l4.089.706A13.788,13.788,0,0,0,10.6,28.288a14.066,14.066,0,0,1-8.067-6.931ZM19.4,28.288a13.788,13.788,0,0,0,3.978-6.225l4.089-.706A14.067,14.067,0,0,1,19.4,28.288Zm0,0" fill="#ecbe44"/>
</svg>
