<svg id="Group_16779" data-name="Group 16779" xmlns="http://www.w3.org/2000/svg" xmlns:xlink="http://www.w3.org/1999/xlink" width="23.543" height="25.125" viewBox="0 0 23.543 25.125">
  <defs>
    <clipPath id="clip-path">
      <rect id="Rectangle_2386" data-name="Rectangle 2386" width="23.543" height="25.125" fill="none"/>
    </clipPath>
  </defs>
  <g id="Group_16777" data-name="Group 16777" clip-path="url(#clip-path)">
    <path id="Path_3450" data-name="Path 3450" d="M21.543,2C20.181.636,18.125,0,15.081,0h-.163c-2.757,0-4.669.5-6.044,1.615S6.728,4.463,6.517,6.909a.59.59,0,0,0,.536.638h0a.589.589,0,0,0,.637-.537c.185-2.139.8-3.564,1.926-4.478s2.862-1.358,5.3-1.358h.163c2.71,0,4.5.527,5.628,1.655s1.656,2.918,1.656,5.628v8.2c0,2.71-.528,4.5-1.656,5.628s-2.918,1.656-5.628,1.656h-.163c-2.421,0-4.144-.439-5.271-1.339s-1.739-2.3-1.939-4.4h0a.59.59,0,0,0-1.175.111A7.129,7.129,0,0,0,8.91,23.525c1.362,1.092,3.271,1.6,6.008,1.6h.163c3.044,0,5.1-.638,6.462-2s2-3.419,2-6.462v-8.2c0-3.043-.638-5.1-2-6.462" fill="#ecbe44"/>
    <path id="Path_3451" data-name="Path 3451" d="M2.014,13.138h14.3a.59.59,0,1,0,0-1.179H2.013L5.22,8.752a.589.589,0,0,0-.834-.833L.173,12.132a.59.59,0,0,0,0,.835L4.386,17.18a.59.59,0,0,0,.834-.836Z" fill="#ecbe44"/>
  </g>
</svg>
