<svg xmlns="http://www.w3.org/2000/svg" width="23.543" height="25.122" viewBox="0 0 23.543 25.122">
  <path id="Path_3461" data-name="Path 3461" d="M10.238,24.132,9.805,23.5H6.259a2.314,2.314,0,0,1-2.306-2.309v-6.18L.438,9.914a2.321,2.321,0,0,1,.58-3.2L1.031,6.7,3.953,4.691v-.76a2.317,2.317,0,0,1,2.3-2.307H8.4L10.173.408A2.322,2.322,0,0,1,11.483,0,2.239,2.239,0,0,1,11.9.039l.431.08L12.3.151a2.313,2.313,0,0,1,1.069.833l.01.016.433.629h3.55a2.317,2.317,0,0,1,2.3,2.307V10.12l3.51,5.092a2.311,2.311,0,0,1-.59,3.208l-2.92,2.012v.763a2.315,2.315,0,0,1-2.3,2.309h-2.15l-1.766,1.218a2.328,2.328,0,0,1-3.21-.59m.827-.571a1.308,1.308,0,0,0,1.076.564,1.286,1.286,0,0,0,.737-.23l.568-.392H11.024ZM4.956,3.931V21.2a1.3,1.3,0,0,0,1.3,1.3H17.37a1.3,1.3,0,0,0,1.294-1.3V3.925a1.3,1.3,0,0,0-1.3-1.3H6.253a1.3,1.3,0,0,0-1.3,1.3v0M19.668,19.213l2.361-1.626a1.3,1.3,0,0,0,.323-1.8l-.022-.031-2.662-3.868ZM1.6,7.532a1.3,1.3,0,0,0-.337,1.807l0,.005,2.687,3.9V5.911Zm9.143-6.3-.569.391h2.42l-.06-.086a1.294,1.294,0,0,0-.821-.517A1.377,1.377,0,0,0,11.482,1a1.29,1.29,0,0,0-.738.233ZM14.22,20.521V18.386H13.7a.377.377,0,1,1,0-.754H15.49a.377.377,0,1,1,0,.754h-.517v2.136a.377.377,0,1,1-.754,0Zm-3.246.266a.369.369,0,0,1-.11-.266V18.009a.377.377,0,0,1,.376-.377H12.5a.377.377,0,0,1,0,.754h-.883v.5H12.5a.377.377,0,1,1,0,.754h-.882v.879a.377.377,0,0,1-.643.266ZM8.129,20.9a.377.377,0,0,1-.376-.377V18.009a.377.377,0,0,1,.692-.207L9.4,19.257V18.009a.377.377,0,1,1,.754,0v2.513a.377.377,0,0,1-.692.207l-.952-1.456v1.249a.379.379,0,0,1-.377.377Zm-1.206-5a.5.5,0,0,1-.5-.5V4.595a.5.5,0,0,1,.5-.5H16.7a.5.5,0,0,1,.5.5V15.4a.5.5,0,0,1-.5.5Zm.5-1h8.772V5.1H7.423Zm1.366-1.5a.381.381,0,0,1-.379-.38,3.089,3.089,0,0,1,3.076-3.1h.643A3.093,3.093,0,0,1,15.209,13a.394.394,0,0,1-.359.4H8.789Zm.4-.759h5.23a2.318,2.318,0,0,0-2.3-1.958h-.641a2.319,2.319,0,0,0-2.283,1.954Zm.877-4.524a1.237,1.237,0,1,0,.005,0Zm.76,0a6.212,6.212,0,1,1,.005,0Z" transform="translate(-0.037)" fill="#fff"/>
</svg>
