<?xml version="1.0" encoding="utf-8"?>
<!-- Generator: Adobe Illustrator 27.2.0, SVG Export Plug-In . SVG Version: 6.00 Build 0)  -->
<svg version="1.1" id="Layer_1" xmlns="http://www.w3.org/2000/svg" xmlns:xlink="http://www.w3.org/1999/xlink" x="0px" y="0px"
	 viewBox="0 0 23.5 25.1" style="enable-background:new 0 0 23.5 25.1;" xml:space="preserve">
<style type="text/css">
	.st0{fill:#ECBE44;}
</style>
<path id="Path_3461" class="st0" d="M10.2,24.1l-0.4-0.6H6.2c-1.3,0-2.3-1-2.3-2.3V15L0.4,9.9c-0.7-1-0.5-2.5,0.6-3.2l0,0l2.9-2V3.9
	c0-1.3,1-2.3,2.3-2.3h2.1l1.8-1.2C10.5,0.1,11,0,11.4,0c0.1,0,0.3,0,0.4,0l0.4,0.1l0,0c0.4,0.2,0.8,0.5,1.1,0.8l0,0l0.4,0.6h3.5
	c1.3,0,2.3,1,2.3,2.3v6.2l3.5,5.1c0.7,1,0.5,2.5-0.6,3.2l-2.9,2v0.8c0,1.3-1,2.3-2.3,2.3h-2.1l-1.8,1.2
	C12.4,25.4,10.9,25.2,10.2,24.1 M11,23.6c0.2,0.4,0.6,0.6,1.1,0.6c0.3,0,0.5-0.1,0.7-0.2l0.6-0.4L11,23.6L11,23.6z M4.9,3.9v17.3
	c0,0.7,0.6,1.3,1.3,1.3h11.1c0.7,0,1.3-0.6,1.3-1.3V3.9c0-0.7-0.6-1.3-1.3-1.3H6.2C5.5,2.6,4.9,3.2,4.9,3.9L4.9,3.9 M19.6,19.2
	l2.4-1.6c0.6-0.4,0.7-1.2,0.3-1.8l0,0l-2.7-3.9V19.2z M1.6,7.5C1,7.9,0.8,8.7,1.2,9.3v0l2.7,3.9V5.9L1.6,7.5z M10.7,1.2l-0.6,0.4
	h2.4l-0.1-0.1C12.3,1.3,12,1.1,11.7,1c-0.1,0-0.2,0-0.2,0C11.2,1,10.9,1.1,10.7,1.2L10.7,1.2z M14.2,20.5v-2.1h-0.5
	c-0.2,0-0.4-0.2-0.4-0.4s0.2-0.4,0.4-0.4c0,0,0,0,0,0h1.8c0.2,0,0.4,0.2,0.4,0.4s-0.2,0.4-0.4,0.4c0,0,0,0,0,0h-0.5v2.1
	c0,0.2-0.2,0.4-0.4,0.4S14.2,20.7,14.2,20.5C14.2,20.5,14.2,20.5,14.2,20.5L14.2,20.5z M10.9,20.8c-0.1-0.1-0.1-0.2-0.1-0.3V18
	c0-0.2,0.2-0.4,0.4-0.4h1.3c0.2,0,0.4,0.2,0.4,0.4c0,0.2-0.2,0.4-0.4,0.4h-0.9v0.5h0.9c0.2,0,0.4,0.2,0.4,0.4s-0.2,0.4-0.4,0.4
	c0,0,0,0,0,0h-0.9v0.9c0,0.2-0.2,0.4-0.4,0.4C11.1,20.9,11,20.9,10.9,20.8L10.9,20.8z M8.1,20.9c-0.2,0-0.4-0.2-0.4-0.4V18
	c0-0.2,0.2-0.4,0.4-0.4c0.1,0,0.2,0.1,0.3,0.2l1,1.5V18c0-0.2,0.2-0.4,0.4-0.4s0.4,0.2,0.4,0.4c0,0,0,0,0,0v2.5
	c0,0.2-0.2,0.4-0.4,0.4c-0.1,0-0.2-0.1-0.3-0.2l-1-1.5v1.2C8.5,20.7,8.3,20.9,8.1,20.9L8.1,20.9z M6.9,15.9c-0.3,0-0.5-0.2-0.5-0.5
	V4.6c0-0.3,0.2-0.5,0.5-0.5h9.8c0.3,0,0.5,0.2,0.5,0.5v10.8c0,0.3-0.2,0.5-0.5,0.5H6.9z M7.4,14.9h8.8V5.1H7.4V14.9z M8.8,13.4
	c-0.2,0-0.4-0.2-0.4-0.4c0-1.7,1.4-3.1,3.1-3.1h0.6c1.7,0,3.1,1.4,3.1,3.1c0,0.2-0.2,0.4-0.4,0.4H8.8z M9.2,12.6h5.2
	c-0.2-1.1-1.2-2-2.3-2h-0.6C10.3,10.7,9.3,11.5,9.2,12.6L9.2,12.6z M11.8,6.6c-0.7,0-1.2,0.6-1.2,1.2c0,0.7,0.6,1.2,1.2,1.2
	S13,8.5,13,7.9C13,7.2,12.5,6.6,11.8,6.6L11.8,6.6z"/>
</svg>
