<svg xmlns="http://www.w3.org/2000/svg" width="24.545" height="26.13" viewBox="0 0 24.545 26.13">
  <path id="Union_36" data-name="Union 36" d="M18.711-1494.875H4.834a4.877,4.877,0,0,1-3.487-1.267A4.546,4.546,0,0,1,0-1499.576a4.031,4.031,0,0,1,.056-.684,17.62,17.62,0,0,1,.225-1.794,14.6,14.6,0,0,1,.441-1.8,8.867,8.867,0,0,1,.736-1.651,6.177,6.177,0,0,1,1.089-1.421A4.731,4.731,0,0,1,4.1-1507.9a5.371,5.371,0,0,1,1.935-.359h.05c.21,0,.429.07.994.438.383.247.779.5,1.179.759a6.951,6.951,0,0,0,1.577.7,6.162,6.162,0,0,0,3.879,0,6.913,6.913,0,0,0,1.577-.7c.43-.273.825-.529,1.179-.759.564-.367.782-.437.99-.437h.053a5.4,5.4,0,0,1,1.937.36,4.727,4.727,0,0,1,1.546.97,6.165,6.165,0,0,1,1.089,1.42,8.655,8.655,0,0,1,.733,1.661,14.307,14.307,0,0,1,.441,1.8,17.368,17.368,0,0,1,.225,1.792v.008a3.848,3.848,0,0,1,.057.679,4.539,4.539,0,0,1-1.334,3.431,4.871,4.871,0,0,1-3.282,1.272C18.852-1494.87,18.781-1494.872,18.711-1494.875ZM4.537-1506.813a3.557,3.557,0,0,0-1.166.726,5.044,5.044,0,0,0-.887,1.158,7.533,7.533,0,0,0-.633,1.435,12.96,12.96,0,0,0-.4,1.647,15.467,15.467,0,0,0-.215,1.666c-.035.512-.054.052-.054.6a3.363,3.363,0,0,0,.976,2.582,3.684,3.684,0,0,0,2.673.941H18.711a3.726,3.726,0,0,0,2.608-.88l.067-.061a3.37,3.37,0,0,0,.976-2.582c0-.542-.018-.077-.054-.589v-.015a15.952,15.952,0,0,0-.215-1.667,12.891,12.891,0,0,0-.4-1.645,7.508,7.508,0,0,0-.635-1.438,4.952,4.952,0,0,0-.873-1.147l-.008-.007a3.529,3.529,0,0,0-1.167-.726,4.126,4.126,0,0,0-1.417-.274h-.066l-.058.031c-.095.051-.218.125-.354.214-.375.246-.764.5-1.186.766a8.066,8.066,0,0,1-1.85.826,7.318,7.318,0,0,1-4.6,0,8.152,8.152,0,0,1-1.854-.826c-.451-.287-.847-.544-1.188-.766-.137-.089-.258-.162-.355-.213l-.057-.035H5.953A4.118,4.118,0,0,0,4.537-1506.813Zm7.056-1.313-.059-.008A5.738,5.738,0,0,1,7.4-1509.87a5.743,5.743,0,0,1-1.739-4.2,5.744,5.744,0,0,1,1.739-4.2,5.741,5.741,0,0,1,4.2-1.73,5.737,5.737,0,0,1,4.2,1.739,5.741,5.741,0,0,1,1.74,4.2,5.739,5.739,0,0,1-1.74,4.195,5.735,5.735,0,0,1-4.114,1.739Zm3.456-2.483a4.676,4.676,0,0,0,1.431-3.456,4.674,4.674,0,0,0-1.432-3.456,4.674,4.674,0,0,0-3.456-1.431,4.626,4.626,0,0,0-2.87.922l-.2.148v-.026l-.388.382a4.669,4.669,0,0,0-1.428,3.46,4.662,4.662,0,0,0,1.431,3.456,4.673,4.673,0,0,0,3.456,1.432A4.675,4.675,0,0,0,15.049-1510.609Z" transform="translate(0.501 1520.5)" fill="#ecbe44" stroke="rgba(0,0,0,0)" stroke-width="1"/>
</svg>
