<svg xmlns="http://www.w3.org/2000/svg" xmlns:xlink="http://www.w3.org/1999/xlink" width="25.935" height="29.907" viewBox="0 0 25.935 29.907">
  <defs>
    <clipPath id="clip-path">
      <rect id="Rectangle_3909" data-name="Rectangle 3909" width="25.935" height="29.907" transform="translate(0 0)" fill="none"/>
    </clipPath>
  </defs>
  <g id="Group_17196" data-name="Group 17196" transform="translate(0 0)">
    <g id="Group_17195" data-name="Group 17195" clip-path="url(#clip-path)">
      <path id="Path_3967" data-name="Path 3967" d="M7.673,26.077H3.333a3.337,3.337,0,0,1-2.081-5.943l.535-.431a4.6,4.6,0,0,0,1.724-3.6v-.95a.631.631,0,0,1,1.262,0v.95a5.857,5.857,0,0,1-2.194,4.583l-.536.431a2.1,2.1,0,0,0-.782,1.632,2.071,2.071,0,0,0,2.071,2.066H20.007a2.069,2.069,0,0,0,2.07-2.066v-.028a2.089,2.089,0,0,0-.755-1.609l-.522-.435a5.865,5.865,0,0,1-2.12-4.521v-1.9A7.128,7.128,0,0,1,11.7,6.329a7.03,7.03,0,0,0-1.326.131h-.023a6.956,6.956,0,0,0-5.578,6.8.631.631,0,0,1-1.262,0A8.238,8.238,0,0,1,9.244,5.449a2.627,2.627,0,0,1,1.908-3.581,2.693,2.693,0,0,1,.522-.051,2.633,2.633,0,0,1,1.726.648A7.139,7.139,0,0,1,25.935,7.129a.631.631,0,0,1-1.262,0,5.843,5.843,0,1,0-.236,1.65.631.631,0,0,1,1.211.356,7.14,7.14,0,0,1-5.706,5.028v1.991A4.611,4.611,0,0,0,21.608,19.7l.521.434a3.345,3.345,0,0,1,1.211,2.579v.028a3.334,3.334,0,0,1-3.333,3.328H15.666a4,4,0,0,1-7.993,0Zm4,2.66a2.736,2.736,0,0,0,2.734-2.66H8.935a2.737,2.737,0,0,0,2.734,2.661ZM11.4,3.105a1.363,1.363,0,0,0-1.069,1.6,1.317,1.317,0,0,0,.177.448,8.386,8.386,0,0,1,1.451-.087,7.13,7.13,0,0,1,.7-1.567,1.347,1.347,0,0,0-.981-.418,1.386,1.386,0,0,0-.273.024" fill="#ecbe44"/>
      <path id="Path_3968" data-name="Path 3968" d="M23.713,7.112a4.918,4.918,0,1,1-4.919-4.919,4.919,4.919,0,0,1,4.919,4.919" fill="#ed1c24"/>
    </g>
  </g>
</svg>
